<svg width="343" height="109" viewBox="0 0 343 109" fill="none" xmlns="http://www.w3.org/2000/svg">
<path d="M0.166667 6C0.166667 8.94552 2.55448 11.3333 5.5 11.3333C8.44552 11.3333 10.8333 8.94552 10.8333 6C10.8333 3.05448 8.44552 0.666667 5.5 0.666667C2.55448 0.666667 0.166667 3.05448 0.166667 6ZM5.5 7H87.5V5H5.5V7ZM126.5 46V67.5H128.5V46H126.5ZM167.5 108.5H396.5V106.5H167.5V108.5ZM126.5 67.5C126.5 90.1437 144.856 108.5 167.5 108.5V106.5C145.961 106.5 128.5 89.0391 128.5 67.5H126.5ZM87.5 7C109.039 7 126.5 24.4609 126.5 46H128.5C128.5 23.3563 110.144 5 87.5 5V7Z" fill="url(#paint0_linear_4072_7270)"/>
<defs>
<linearGradient id="paint0_linear_4072_7270" x1="387.249" y1="1.30096" x2="30.1688" y2="1.30096" gradientUnits="userSpaceOnUse">
<stop stop-color="#F4B448" stop-opacity="0"/>
<stop offset="1" stop-color="#F4B448"/>
</linearGradient>
</defs>
</svg>
