<svg width="164" height="182" viewBox="0 0 164 182" fill="none" xmlns="http://www.w3.org/2000/svg">
<path d="M0.166667 6C0.166667 8.94552 2.55448 11.3333 5.5 11.3333C8.44552 11.3333 10.8333 8.94552 10.8333 6C10.8333 3.05448 8.44552 0.666667 5.5 0.666667C2.55448 0.666667 0.166667 3.05448 0.166667 6ZM4.5 6V141H6.5V6H4.5ZM45.5 182H181V180H45.5V182ZM4.5 141C4.5 163.644 22.8563 182 45.5 182V180C23.9609 180 6.5 162.539 6.5 141H4.5Z" fill="url(#paint0_linear_4072_7268)"/>
<defs>
<linearGradient id="paint0_linear_4072_7268" x1="176.848" y1="-2.1018" x2="16.5726" y2="-2.1018" gradientUnits="userSpaceOnUse">
<stop stop-color="#F4B448" stop-opacity="0"/>
<stop offset="1" stop-color="#F4B448"/>
</linearGradient>
</defs>
</svg>
